<mxfile host="app.diagrams.net" modified="2020-10-22T03:18:14.378Z" agent="5.0 (Windows NT 10.0; Win64; x64) AppleWebKit/537.36 (KHTML, like Gecko) Chrome/86.0.4240.75 Safari/537.36" etag="xuiY-SwUU17FP9RJhtTo" version="13.8.1" type="github">
  <diagram id="IoN3bJZCd9BXfLy1miPE" name="Page-1">
    <mxGraphModel dx="1422" dy="794" grid="1" gridSize="10" guides="1" tooltips="1" connect="1" arrows="1" fold="1" page="1" pageScale="1" pageWidth="827" pageHeight="1169" math="0" shadow="0">
      <root>
        <mxCell id="0" />
        <mxCell id="1" parent="0" />
        <mxCell id="4YcYDhRcFaXpKPz45M65-2" value="B" style="ellipse;shape=doubleEllipse;whiteSpace=wrap;html=1;aspect=fixed;fillColor=#FF3333;fontSize=16;" vertex="1" parent="1">
          <mxGeometry x="190" y="300" width="80" height="80" as="geometry" />
        </mxCell>
        <mxCell id="4YcYDhRcFaXpKPz45M65-4" style="rounded=0;orthogonalLoop=1;jettySize=auto;html=1;" edge="1" parent="1" source="4YcYDhRcFaXpKPz45M65-3" target="4YcYDhRcFaXpKPz45M65-2">
          <mxGeometry relative="1" as="geometry" />
        </mxCell>
        <mxCell id="4YcYDhRcFaXpKPz45M65-3" value="&lt;font style=&quot;font-size: 16px&quot;&gt;A&lt;/font&gt;" style="ellipse;whiteSpace=wrap;html=1;aspect=fixed;fillColor=#FF3333;" vertex="1" parent="1">
          <mxGeometry x="300" y="120" width="80" height="80" as="geometry" />
        </mxCell>
      </root>
    </mxGraphModel>
  </diagram>
</mxfile>
